<svg width="16" height="16" viewBox="0 0 16 16" fill="none" xmlns="http://www.w3.org/2000/svg" style="background-color: white;">
  <path fill-rule="evenodd" clip-rule="evenodd" d="M9.08414 13.8688C10.5546 12.555 13 9.89704 13 6.75C13 5.42392 12.4732 4.15215 11.5355 3.21447C10.5979 2.27678 9.32608 1.75 8 1.75C6.67392 1.75 5.40215 2.27678 4.46447 3.21447C3.52678 4.15215 3 5.42392 3 6.75C3 9.89704 5.4454 12.555 6.91586 13.8688C7.38418 14.2872 7.61834 14.4964 8 14.4964C8.38166 14.4964 8.61582 14.2872 9.08414 13.8688ZM10.5 6.75C10.5 8.13071 9.38071 9.25 8 9.25C6.61929 9.25 5.5 8.13071 5.5 6.75C5.5 5.36929 6.61929 4.25 8 4.25C9.38071 4.25 10.5 5.36929 10.5 6.75Z" fill="#000000"></path>
  <path d="M9.08414 13.8688L8.68438 13.4214L9.08414 13.8688ZM6.91586 13.8688L7.31562 13.4214L6.91586 13.8688ZM12.4 6.75C12.4 8.16783 11.8481 9.50544 11.0906 10.6696C10.3343 11.832 9.39653 12.7851 8.68438 13.4214L9.4839 14.3162C10.2422 13.6387 11.2624 12.606 12.0964 11.3241C12.9292 10.0441 13.6 8.47922 13.6 6.75H12.4ZM11.1113 3.63873C11.9364 4.46389 12.4 5.58305 12.4 6.75H13.6C13.6 5.26479 13.01 3.84041 11.9598 2.7902L11.1113 3.63873ZM8 2.35C9.16695 2.35 10.2861 2.81357 11.1113 3.63873L11.9598 2.7902C10.9096 1.74 9.48521 1.15 8 1.15V2.35ZM4.88873 3.63873C5.71389 2.81357 6.83305 2.35 8 2.35V1.15C6.51479 1.15 5.09041 1.74 4.0402 2.7902L4.88873 3.63873ZM3.6 6.75C3.6 5.58305 4.06357 4.46389 4.88873 3.63873L4.0402 2.7902C2.99 3.84041 2.4 5.26479 2.4 6.75H3.6ZM7.31562 13.4214C6.60347 12.7851 5.66569 11.832 4.90943 10.6696C4.15193 9.50544 3.6 8.16783 3.6 6.75H2.4C2.4 8.47922 3.07077 10.0441 3.90359 11.3241C4.73765 12.606 5.75779 13.6387 6.5161 14.3162L7.31562 13.4214Z" fill="#000000"></path>
</svg>
